<svg xmlns="http://www.w3.org/2000/svg" viewBox="0 0 600 340" width="100%" height="100%">
  <defs>
    <linearGradient id="bgGrad2" x1="0%" y1="0%" x2="100%" y2="100%">
      <stop offset="0%" stop-color="#131826"/>
      <stop offset="100%" stop-color="#1B2233"/>
    </linearGradient>
    <linearGradient id="barGrad1" x1="0%" y1="0%" x2="0%" y2="100%">
      <stop offset="0%" stop-color="#3B82F6"/>
      <stop offset="100%" stop-color="#1D4ED8"/>
    </linearGradient>
    <linearGradient id="barGrad2" x1="0%" y1="0%" x2="0%" y2="100%">
      <stop offset="0%" stop-color="#22D3EE"/>
      <stop offset="100%" stop-color="#0891B2"/>
    </linearGradient>
  </defs>
  <rect width="600" height="340" rx="14" fill="url(#bgGrad2)"/>
  <rect x="1" y="1" width="598" height="338" rx="13" fill="none" stroke="#232B3D" stroke-width="1.5"/>

  <rect x="24" y="20" width="552" height="44" rx="8" fill="#0F1524" stroke="#232B3D" stroke-width="1"/>
  <circle cx="46" cy="42" r="5" fill="#EF4444"/>
  <circle cx="62" cy="42" r="5" fill="#F59E0B"/>
  <circle cx="78" cy="42" r="5" fill="#10B981"/>
  <text x="100" y="46" font-family="'Space Grotesk', sans-serif" font-size="12" font-weight="600" fill="#9AA4B8">LONGITUDINAL_REGRESSION_MODEL.PY</text>
  <rect x="440" y="30" width="120" height="24" rx="12" fill="rgba(59, 130, 246, 0.15)"/>
  <text x="500" y="46" font-family="'Inter', sans-serif" font-size="10" font-weight="700" fill="#3B82F6" text-anchor="middle">MULTI-VARIATE</text>

  <g transform="translate(24, 78)">
    <rect width="260" height="237" rx="8" fill="#0F1524" stroke="#232B3D" stroke-width="1"/>
    <text x="18" y="25" font-family="'Inter', sans-serif" font-size="11" font-weight="700" fill="#E8EBF1">Demographic Correlation</text>
    <text x="18" y="42" font-family="'Inter', sans-serif" font-size="9" fill="#9AA4B8">Hypothesis Variance (p &lt; 0.01)</text>
    
    <g transform="translate(18, 60)">
      <rect x="0" y="80" width="16" height="70" rx="3" fill="url(#barGrad1)"/>
      <rect x="20" y="50" width="16" height="100" rx="3" fill="url(#barGrad2)"/>
      <text x="18" y="164" font-family="'Inter', sans-serif" font-size="9" fill="#64748B" text-anchor="middle">Cat A</text>

      <rect x="60" y="40" width="16" height="110" rx="3" fill="url(#barGrad1)"/>
      <rect x="80" y="20" width="16" height="130" rx="3" fill="url(#barGrad2)"/>
      <text x="78" y="164" font-family="'Inter', sans-serif" font-size="9" fill="#64748B" text-anchor="middle">Cat B</text>

      <rect x="120" y="65" width="16" height="85" rx="3" fill="url(#barGrad1)"/>
      <rect x="140" y="35" width="16" height="115" rx="3" fill="url(#barGrad2)"/>
      <text x="138" y="164" font-family="'Inter', sans-serif" font-size="9" fill="#64748B" text-anchor="middle">Cat C</text>

      <rect x="180" y="90" width="16" height="60" rx="3" fill="url(#barGrad1)"/>
      <rect x="200" y="70" width="16" height="80" rx="3" fill="url(#barGrad2)"/>
      <text x="198" y="164" font-family="'Inter', sans-serif" font-size="9" fill="#64748B" text-anchor="middle">Cat D</text>
    </g>
  </g>

  <g transform="translate(300, 78)">
    <rect width="276" height="237" rx="8" fill="#0F1524" stroke="#232B3D" stroke-width="1"/>
    <text x="18" y="25" font-family="'Inter', sans-serif" font-size="11" font-weight="700" fill="#E8EBF1">Statistical Regression Fit</text>
    <text x="18" y="42" font-family="'Inter', sans-serif" font-size="9" fill="#9AA4B8">R? = 0.934 | Confidence Interval 95%</text>

    <circle cx="35" cy="180" r="3.5" fill="rgba(34, 211, 238, 0.6)"/>
    <circle cx="55" cy="160" r="3.5" fill="rgba(34, 211, 238, 0.6)"/>
    <circle cx="75" cy="175" r="3.5" fill="rgba(34, 211, 238, 0.6)"/>
    <circle cx="100" cy="130" r="3.5" fill="rgba(34, 211, 238, 0.6)"/>
    <circle cx="130" cy="145" r="3.5" fill="rgba(34, 211, 238, 0.6)"/>
    <circle cx="155" cy="110" r="3.5" fill="rgba(34, 211, 238, 0.6)"/>
    <circle cx="185" cy="95" r="3.5" fill="rgba(34, 211, 238, 0.6)"/>
    <circle cx="215" cy="80" r="3.5" fill="rgba(34, 211, 238, 0.6)"/>
    <circle cx="245" cy="65" r="3.5" fill="rgba(34, 211, 238, 0.6)"/>

    <line x1="25" y1="195" x2="255" y2="55" stroke="#3B82F6" stroke-width="3" stroke-linecap="round"/>
    <line x1="25" y1="180" x2="255" y2="40" stroke="#22D3EE" stroke-width="1.5" stroke-dasharray="3 3" opacity="0.6"/>
    <line x1="25" y1="210" x2="255" y2="70" stroke="#22D3EE" stroke-width="1.5" stroke-dasharray="3 3" opacity="0.6"/>

    <rect x="18" y="200" width="240" height="24" rx="6" fill="#1B2233"/>
    <text x="138" y="216" font-family="'Space Grotesk', sans-serif" font-size="10" font-weight="600" fill="#22D3EE" text-anchor="middle">Long-Term Longitudinal Trend Detected</text>
  </g>
</svg>